<?xml version="1.0" encoding="UTF-8"?>
<svg width="50px" height="51px" viewBox="0 0 50 51" version="1.1" xmlns="http://www.w3.org/2000/svg" xmlns:xlink="http://www.w3.org/1999/xlink">
    <!-- Generator: sketchtool 49.3 (51167) - http://www.bohemiancoding.com/sketch -->
    <title>510D13E6-FE79-4EC8-9E5D-F9358CA0BF8A</title>
    <desc>Created with sketchtool.</desc>
    <defs></defs>
    <g id="Page-1" stroke="none" stroke-width="1" fill="none" fill-rule="evenodd">
        <g id="Homepage" transform="translate(-186.000000, -1094.000000)" fill-rule="nonzero">
            <g id="art_palette" transform="translate(186.000000, 1092.000000)">
                <path d="M24.2306569,2.04179224 C23.3972723,2.04179224 22.9180761,2.08346147 22.9180761,2.08346147 C22.9180761,2.08346147 0,4.16692294 0,29.1684606 C0,29.1684606 0,43.7526908 8.33384587,43.7526908 C15.625961,43.7526908 16.5426841,32.5853374 20.8346147,32.5853374 C21.4596531,32.5853374 22.1263608,32.8145181 22.9180761,33.3353835 C29.1684606,37.5023064 8.33384587,43.7526908 14.5842303,50.0030752 C16.2301648,51.6490098 19.5011993,52.5865675 23.3972723,52.5865675 C34.2521065,52.5865675 50.0030752,45.4611292 50.0030752,27.0849991 C50.0030752,3.60438834 29.6684913,2.04179224 24.2306569,2.04179224 Z M23.3972723,50.503106 C20.0845686,50.503106 17.2718956,49.7530599 16.0634879,48.5238176 C15.4592841,47.9196138 15.4801187,47.5654253 15.4801187,47.4612522 C15.5842918,46.0236638 18.4803032,43.7526908 20.6054339,42.0859217 C23.6472877,39.689941 26.2932837,37.6481487 26.1891107,34.9604834 C26.1474414,34.0437604 25.7515837,32.7311797 24.0848146,31.6061105 C22.98058,30.876899 21.89718,30.5018759 20.8346147,30.5018759 C17.7719263,30.5018759 16.1468264,33.3166323 14.542561,36.0230488 C12.5632727,39.4399256 11.0631804,41.6692294 8.33384587,41.6692294 C2.270973,41.6692294 2.08346147,29.2934682 2.08346147,29.1684606 C2.08346147,6.41706132 22.2513685,4.25026139 23.0847531,4.16692294 C23.1055877,4.16692294 23.52228,4.12525371 24.2306569,4.12525371 C29.793499,4.12525371 47.9196138,5.79202288 47.9196138,27.0849991 C47.9196138,44.2735562 33.252045,50.503106 23.3972723,50.503106 Z" id="Shape" fill="#2D2220"></path>
                <path d="M43.8985331,12.8341226 C38.335691,8.7922074 31.4602682,8.29217664 28.3975798,8.29217664 C27.6892029,8.29217664 27.2725106,8.33384587 27.251676,8.33384587 C26.4182914,8.41718433 6.2503844,10.5839843 6.2503844,33.3353835 C6.2503844,33.4187219 6.31288825,38.0231718 7.75047666,41.6275601 C7.93798819,41.6483947 8.12549973,41.6692294 8.33384587,41.6692294 C11.0631804,41.6692294 12.5632727,39.4399256 14.542561,36.0230488 C16.1468264,33.3145489 17.7719263,30.5018759 20.8346147,30.5018759 C21.89718,30.5018759 22.98058,30.8789824 24.0848146,31.6061105 C25.6682453,32.6915939 26.1057722,33.9187527 26.168276,34.8354757 C26.1891107,34.8792284 26.1891107,34.9188142 26.1891107,34.9625669 C26.2932837,37.6502322 23.6472877,39.6920244 20.6054339,42.0880051 C18.4803032,43.7547743 15.5842918,46.0257473 15.4801187,47.4633357 C15.4801187,47.5675088 15.4592841,47.9216972 16.0634879,48.5259011 C16.8760379,49.3592856 18.3969648,49.9634895 20.3345839,50.2551741 C21.2721416,50.421851 22.3138723,50.5051894 23.3972723,50.5051894 C33.252045,50.503106 47.9196138,44.2735562 47.9196138,27.0849991 C47.9196138,20.7512762 46.3153484,16.1468264 43.8985331,12.8341226 Z M18.7511532,20.8346147 C16.4593456,20.8346147 14.5842303,18.9594994 14.5842303,16.6676917 C14.5842303,14.3758841 16.4593456,12.5007688 18.7511532,12.5007688 C21.0429608,12.5007688 22.9180761,14.3758841 22.9180761,16.6676917 C22.9180761,18.9594994 21.0429608,20.8346147 18.7511532,20.8346147 Z M35.418845,39.5857679 C33.1270373,39.5857679 31.251922,37.7106526 31.251922,35.418845 C31.251922,33.1270373 33.1270373,31.251922 35.418845,31.251922 C37.7106526,31.251922 39.5857679,33.1270373 39.5857679,35.418845 C39.5857679,37.7106526 37.7106526,39.5857679 35.418845,39.5857679 Z M35.418845,22.9180761 C33.1270373,22.9180761 31.251922,21.0429608 31.251922,18.7511532 C31.251922,16.4593456 33.1270373,14.5842303 35.418845,14.5842303 C37.7106526,14.5842303 39.5857679,16.4593456 39.5857679,18.7511532 C39.5857679,21.0429608 37.7106526,22.9180761 35.418845,22.9180761 Z" id="Shape" fill="#FFD561"></path>
                <path d="M8.33384587,25.0015376 C6.04203826,25.0015376 4.16692294,26.8766529 4.16692294,29.1684606 C4.16692294,31.4602682 6.04203826,33.3353835 8.33384587,33.3353835 C10.6256535,33.3353835 12.5007688,31.4602682 12.5007688,29.1684606 C12.5007688,26.8766529 10.6256535,25.0015376 8.33384587,25.0015376 Z M8.33384587,31.251922 C7.18794206,31.251922 6.2503844,30.3143644 6.2503844,29.1684606 C6.2503844,28.0225567 7.18794206,27.0849991 8.33384587,27.0849991 C9.47974968,27.0849991 10.4173073,28.0225567 10.4173073,29.1684606 C10.4173073,30.3143644 9.47974968,31.251922 8.33384587,31.251922 Z" id="Shape" fill="#2D2220"></path>
                <circle id="Oval" fill="#31CFFF" cx="8.33384587" cy="29.1684606" r="2.08346147"></circle>
                <path d="M18.7511532,10.4173073 C15.2926072,10.4173073 12.5007688,13.2091457 12.5007688,16.6676917 C12.5007688,20.1262378 15.2926072,22.9180761 18.7511532,22.9180761 C22.2096992,22.9180761 25.0015376,20.1262378 25.0015376,16.6676917 C25.0015376,13.2091457 22.2096992,10.4173073 18.7511532,10.4173073 Z M18.7511532,20.8346147 C16.4593456,20.8346147 14.5842303,18.9594994 14.5842303,16.6676917 C14.5842303,14.3758841 16.4593456,12.5007688 18.7511532,12.5007688 C21.0429608,12.5007688 22.9180761,14.3758841 22.9180761,16.6676917 C22.9180761,18.9594994 21.0429608,20.8346147 18.7511532,20.8346147 Z" id="Shape" fill="#2D2220"></path>
                <path d="M22.9180761,16.6676917 C22.9180761,18.9594994 21.0429608,20.8346147 18.7511532,20.8346147 C18.1469494,20.8346147 17.5635802,20.709607 17.0427148,20.4595916 C16.7926994,19.9387262 16.6676917,19.355357 16.6676917,18.7511532 C16.6676917,16.4593456 18.5428071,14.5842303 20.8346147,14.5842303 C21.4388185,14.5842303 22.0221877,14.709238 22.5430531,14.9592533 C22.7930685,15.4801187 22.9180761,16.0634879 22.9180761,16.6676917 Z" id="Shape" fill="#E371FF"></path>
                <path d="M35.418845,12.5007688 C31.9602989,12.5007688 29.1684606,15.2926072 29.1684606,18.7511532 C29.1684606,22.2096992 31.9602989,25.0015376 35.418845,25.0015376 C38.877391,25.0015376 41.6692294,22.2096992 41.6692294,18.7511532 C41.6692294,15.2926072 38.877391,12.5007688 35.418845,12.5007688 Z M35.418845,22.9180761 C33.1270373,22.9180761 31.251922,21.0429608 31.251922,18.7511532 C31.251922,16.4593456 33.1270373,14.5842303 35.418845,14.5842303 C37.7106526,14.5842303 39.5857679,16.4593456 39.5857679,18.7511532 C39.5857679,21.0429608 37.7106526,22.9180761 35.418845,22.9180761 Z" id="Shape" fill="#2D2220"></path>
                <path d="M39.5857679,18.7511532 C39.5857679,21.0429608 37.7106526,22.9180761 35.418845,22.9180761 C34.8146411,22.9180761 34.2312719,22.7930685 33.7104066,22.5430531 C33.4603912,22.0221877 33.3353835,21.4388185 33.3353835,20.8346147 C33.3353835,18.5428071 35.2104988,16.6676917 37.5023064,16.6676917 C38.1065103,16.6676917 38.6898795,16.7926994 39.2107448,17.0427148 C39.4607602,17.5635802 39.5857679,18.1469494 39.5857679,18.7511532 Z" id="Shape" fill="#FF6B43"></path>
                <path d="M35.418845,29.1684606 C31.9602989,29.1684606 29.1684606,31.9602989 29.1684606,35.418845 C29.1684606,38.877391 31.9602989,41.6692294 35.418845,41.6692294 C38.877391,41.6692294 41.6692294,38.877391 41.6692294,35.418845 C41.6692294,31.9602989 38.877391,29.1684606 35.418845,29.1684606 Z M35.418845,39.5857679 C33.1270373,39.5857679 31.251922,37.7106526 31.251922,35.418845 C31.251922,33.1270373 33.1270373,31.251922 35.418845,31.251922 C37.7106526,31.251922 39.5857679,33.1270373 39.5857679,35.418845 C39.5857679,37.7106526 37.7106526,39.5857679 35.418845,39.5857679 Z" id="Shape" fill="#2D2220"></path>
                <path d="M39.5857679,35.418845 C39.5857679,37.7106526 37.7106526,39.5857679 35.418845,39.5857679 C34.8146411,39.5857679 34.2312719,39.4607602 33.7104066,39.2107448 C33.4603912,38.6898795 33.3353835,38.1065103 33.3353835,37.5023064 C33.3353835,35.2104988 35.2104988,33.3353835 37.5023064,33.3353835 C38.1065103,33.3353835 38.6898795,33.4603912 39.2107448,33.7104066 C39.4607602,34.2312719 39.5857679,34.8146411 39.5857679,35.418845 Z" id="Shape" fill="#FFA28D"></path>
            </g>
        </g>
    </g>
</svg>