<?xml version="1.0" encoding="UTF-8"?>
<svg width="49px" height="48px" viewBox="0 0 49 48" version="1.1" xmlns="http://www.w3.org/2000/svg" xmlns:xlink="http://www.w3.org/1999/xlink">
    <!-- Generator: sketchtool 49.3 (51167) - http://www.bohemiancoding.com/sketch -->
    <title>D2F6B026-CC71-435D-8968-69ED8BBC9367</title>
    <desc>Created with sketchtool.</desc>
    <defs></defs>
    <g id="Page-1" stroke="none" stroke-width="1" fill="none" fill-rule="evenodd">
        <g id="Homepage" transform="translate(-563.000000, -1095.000000)" fill-rule="nonzero">
            <g id="brush" transform="translate(562.000000, 1094.000000)">
                <path d="M33.9285714,46.4285714 C33.9285714,45.4410714 33.1303571,44.6428571 32.1428571,44.6428571 L12.5,44.6428571 C11.5142857,44.6428571 5.35714286,45.4410714 5.35714286,46.4285714 L3.57142857,46.4285714 C3.57142857,47.4160714 0.8,48.2142857 1.78571429,48.2142857 L32.1428571,48.2142857 C33.1303571,48.2142857 33.9285714,47.4160714 33.9285714,46.4285714 Z" id="Shape" fill="#31CFFF"></path>
                <path d="M27.4642857,28.7321429 C23.7321429,31.3928571 20.0357143,34.0357143 17.6785714,35.7142857 C17.5714286,35.7857143 17.4642857,35.875 17.3571429,35.9464286 C17.2142857,35.625 17.0178571,35.3214286 16.8214286,35.0178571 C16.6071429,34.6946429 16.3571429,34.3910714 16.0714286,34.125 C17.7321429,31.7678571 20.3928571,28.0535714 23.0535714,24.3214286 L27.4642857,28.7321429 Z" id="Shape" fill="#BCBCBC"></path>
                <path d="M47.2857143,2.73214286 C45.5,0.946428571 43.8035714,2.14285714 43.2482143,2.53571429 C43.0875,2.64285714 23.8732143,15.7678571 19.9089286,21.3214286 L12.1428571,32.1785714 C11.8035714,32.1607143 11.4642857,32.1607143 11.1428571,32.2160714 C7.69642857,32.8589286 5.48214286,35.2160714 4.26785714,38.7160714 C3.66071429,40.4660714 2.46428571,44.9857143 1.46428571,48.5375 C5.03571429,47.5375 9.53571429,46.3428571 11.2857143,45.7357143 C14.8035714,44.5196429 17.1607143,42.325 17.8035714,38.8767857 C17.8571429,38.5214286 17.875,38.1642857 17.8392857,37.8053571 L28.6428571,30.0732143 C33.5535714,26.5553571 45.2321429,10.0375 47.5357143,6.75178571 C48.5178571,5.35714286 48.4285714,3.85714286 47.2857143,2.73214286 Z M16.0535714,38.5178571 C15.5714286,41.1589286 13.8214286,42.9821429 10.6785714,44.0535714 C9.82142857,44.3571429 4.71428571,45.8571429 4.01785714,46.0357143 C4.17857143,45.3214286 5.67857143,40.1946429 5.98214286,39.3392857 C7.07142857,36.1946429 8.875,34.4464286 11.5178571,33.9625 C12.5178571,33.7678571 13.7678571,34.2678571 14.75,35.25 C15.7321429,36.25 16.25,37.5 16.0535714,38.5178571 Z M17.3571429,35.9464286 C16.6964286,34.5357143 15.4642857,33.3053571 14.0535714,32.6607143 C15.25,30.9642857 17.0714286,28.4285714 19.0357143,25.6607143 L24.3392857,30.9642857 C21.5714286,32.9285714 19.0535714,34.7321429 17.3571429,35.9464286 Z M25.8214286,29.9107143 L20.0892857,24.1785714 C20.4821429,23.6428571 20.875,23.0892857 21.2678571,22.5357143 L27.4642857,28.7321429 C26.9107143,29.125 26.3571429,29.5178571 25.8214286,29.9107143 Z M46.1071429,5.60714286 C44.3392857,8.125 34.0160714,22.7857143 28.8392857,27.5892857 L22.4089286,21.1607143 C27.2125,15.9821429 41.9089286,5.69642857 44.4267857,3.92857143 C44.9982143,3.53571429 45.4285714,3.35714286 46.0517857,3.98214286 C46.5714286,4.48214286 46.5178571,5.03571429 46.1071429,5.60714286 Z" id="Shape" fill="#2D2220"></path>
                <path d="M16.0535714,38.5178571 C15.5714286,41.1589286 13.8214286,42.9821429 10.6785714,44.0535714 C10.1785714,44.2321429 8.19642857,44.8214286 6.5,45.3214286 C7,43.625 7.58928571,41.625 7.76785714,41.125 C8.85714286,37.9803571 10.6607143,36.2321429 13.3035714,35.7482143 C13.9821429,35.625 14.7857143,35.8017857 15.5178571,36.2482143 C15.9821429,37 16.1964286,37.8214286 16.0535714,38.5178571 Z" id="Shape" fill="#31CFFF"></path>
                <path d="M45.8392857,5.98214286 C43.5,9.32142857 33.8035714,22.9821429 28.8392857,27.5892857 L24.1946429,22.9464286 C28.8035714,17.9821429 42.5,8.32142857 45.8392857,5.98214286 Z" id="Shape" fill="#E371FF"></path>
                <circle id="Oval" fill="#31CFFF" cx="42.8571429" cy="46.4285714" r="1.78571429"></circle>
                <circle id="Oval" fill="#31CFFF" cx="48.2142857" cy="46.4285714" r="1.78571429"></circle>
                <circle id="Oval" fill="#31CFFF" cx="37.5" cy="46.4285714" r="1.78571429"></circle>
            </g>
        </g>
    </g>
</svg>