<?xml version="1.0" encoding="UTF-8"?>
<svg width="50px" height="36px" viewBox="0 0 50 36" version="1.1" xmlns="http://www.w3.org/2000/svg" xmlns:xlink="http://www.w3.org/1999/xlink">
    <!-- Generator: sketchtool 49.3 (51167) - http://www.bohemiancoding.com/sketch -->
    <title>174102C1-119E-4951-91EE-63A7E5D28882</title>
    <desc>Created with sketchtool.</desc>
    <defs></defs>
    <g id="Page-1" stroke="none" stroke-width="1" fill="none" fill-rule="evenodd">
        <g id="Homepage" transform="translate(-945.000000, -1092.000000)" fill-rule="nonzero">
            <g id="camera" transform="translate(945.000000, 1092.000000)">
                <path d="M46.3211508,11.075589 C46.3211508,12.1127679 45.4877035,12.9462153 44.4505246,12.9462153 C43.4133457,12.9462153 42.5798983,12.1127679 42.5798983,11.075589 C42.5798983,10.0569312 43.4133457,9.22348385 44.4505246,9.22348385 C45.4877035,9.22348385 46.3211508,10.0569312 46.3211508,11.075589 Z" id="Shape" fill="#31CFFF"></path>
                <path d="M29.6336831,13.0202995 L29.6336831,14.9279678 C31.7265619,15.353952 33.3193724,17.2245783 33.3193724,19.4471045 C33.3193724,21.9844886 31.2450146,24.0588464 28.7076305,24.0588464 C26.4851042,24.0588464 24.614478,22.466036 24.1884938,20.3731571 L22.2808254,20.3731571 C22.2808254,20.5028045 22.3178676,20.6324518 22.3363886,20.7620992 C22.9475833,23.7254675 25.5590516,25.9479937 28.7076305,25.9479937 C32.3007145,25.9479937 35.2085197,23.0420407 35.2085197,19.4471045 C35.2085197,16.1688783 32.7822619,13.4648047 29.6336831,13.0202995 Z M27.7815779,14.9279678 L27.7815779,13.0017784 C25.0589832,13.3907205 22.8920202,15.4650783 22.3363886,18.1321098 C22.3178676,18.2617572 22.2808254,18.3914045 22.2808254,18.5210519 L24.1884938,18.5210519 C24.5589148,16.7245099 25.9850358,15.2983889 27.7815779,14.9279678 Z" id="Shape" fill="#2D2220"></path>
                <path d="M33.3193724,19.4471045 C33.3193724,21.6696307 31.7265619,23.540257 29.6336831,23.9662412 C27.5408042,23.540257 25.9479937,21.6696307 25.9479937,19.4471045 C25.9479937,17.2245783 27.5408042,15.353952 29.6336831,14.9279678 C31.7265619,15.353952 33.3193724,17.2245783 33.3193724,19.4471045 Z" id="Shape" fill="#31CFFF"></path>
                <rect id="Rectangle-path" fill="#2D2220" x="5.55631557" y="0" width="9.26052595" height="1.85210519"></rect>
                <path d="M29.6336831,7.44546287 L29.6336831,9.33461016 C34.8380986,9.79763646 38.875688,14.1500837 38.875688,19.4471045 C38.875688,25.0589832 34.3195092,29.615162 28.7076305,29.615162 C23.4106096,29.615162 19.0581624,25.5590516 18.5951361,20.3731571 L16.7059888,20.3731571 C17.1690151,26.5962305 22.3734307,31.4857882 28.7076305,31.4857882 C35.3566881,31.4857882 40.7463142,26.0961621 40.7463142,19.4471045 C40.7463142,13.1129048 35.8567565,7.90848917 29.6336831,7.44546287 Z M27.7815779,9.33461016 L27.7815779,7.44546287 C21.8733623,7.88996811 17.1504941,12.6128363 16.7059888,18.5210519 L18.5951361,18.5210519 C19.0211203,13.6500153 22.8920202,9.76059436 27.7815779,9.33461016 Z" id="Shape" fill="#2D2220"></path>
                <path d="M28.7076305,9.27904701 C23.0772307,9.27904701 18.539573,13.8352258 18.539573,19.4471045 C18.539573,25.0589832 23.0957517,29.615162 28.7076305,29.615162 C34.3195092,29.615162 38.875688,25.0589832 38.875688,19.4471045 C38.875688,13.8352258 34.3380302,9.27904701 28.7076305,9.27904701 Z M28.7076305,27.7630568 C24.1144096,27.7630568 20.3916782,24.0403254 20.3916782,19.4471045 C20.3916782,14.8538836 24.1144096,11.1311522 28.7076305,11.1311522 C33.3008513,11.1311522 37.0235828,14.8538836 37.0235828,19.4471045 C37.0235828,24.0403254 33.3008513,27.7630568 28.7076305,27.7630568 Z" id="Shape" fill="#5FFFBA"></path>
                <path d="M48.154735,22.2252623 L48.154735,7.40842076 C48.154735,5.37110505 46.4878403,3.70421038 44.4505246,3.70421038 L3.70421038,3.70421038 C1.66689467,3.70421038 0,5.37110505 0,7.40842076 L0,31.4857882 C0,33.523104 1.66689467,35.1899986 3.70421038,35.1899986 L44.4505246,35.1899986 C46.4878403,35.1899986 48.154735,33.523104 48.154735,31.4857882 L46.3026298,31.4857882 C46.3026298,32.5044461 45.4691824,33.3378934 44.4505246,33.3378934 L3.70421038,33.3378934 C2.68555253,33.3378934 1.85210519,32.5044461 1.85210519,31.4857882 L1.85210519,7.40842076 C1.85210519,6.38976291 2.68555253,5.55631557 3.70421038,5.55631557 L44.4505246,5.55631557 C45.4691824,5.55631557 46.3026298,6.38976291 46.3026298,7.40842076 L46.3026298,22.2252623 L48.154735,22.2252623 Z" id="Shape" fill="#2D2220"></path>
                <path d="M44.4690456,9.22348385 C44.4690456,10.2606628 43.6355983,11.0941101 42.5984194,11.0941101 C41.5612405,11.0941101 40.7277931,10.2606628 40.7277931,9.22348385 C40.7277931,8.204826 41.5612405,7.37137866 42.5984194,7.37137866 C43.6355983,7.37137866 44.4690456,8.204826 44.4690456,9.22348385 Z" id="Shape" fill="#2D2220"></path>
                <polygon id="Shape" fill="#2D2220" points="14.8168415 7.40842076 14.8168415 14.8168415 9.26052595 14.8168415 9.26052595 12.9647363 12.9647363 12.9647363 12.9647363 9.26052595 5.55631557 9.26052595 5.55631557 7.40842076"></polygon>
                <rect id="Rectangle-path" fill="#2D2220" x="5.55631557" y="12.9647363" width="1.85210519" height="1.85210519"></rect>
                <rect id="Rectangle-path" fill="#5FFFBA" x="5.55631557" y="9.26052595" width="7.40842076" height="3.70421038"></rect>
                <path d="M50.0068402,28.7076305 C50.0068402,29.2262199 49.599377,29.6336831 49.0807876,29.6336831 L45.3765772,29.6336831 C44.8579877,29.6336831 44.4505246,29.2262199 44.4505246,28.7076305 C44.4505246,28.189041 44.8579877,27.7815779 45.3765772,27.7815779 L49.0807876,27.7815779 C49.599377,27.7815779 50.0068402,28.189041 50.0068402,28.7076305 Z" id="Shape" fill="#2D2220"></path>
                <path d="M50.0068402,25.0034201 C50.0068402,25.5220095 49.599377,25.9294727 49.0807876,25.9294727 L45.3765772,25.9294727 C44.8579877,25.9294727 44.4505246,25.5220095 44.4505246,25.0034201 C44.4505246,24.4848306 44.8579877,24.0773675 45.3765772,24.0773675 L49.0807876,24.0773675 C49.599377,24.0773675 50.0068402,24.4848306 50.0068402,25.0034201 Z" id="Shape" fill="#2D2220"></path>
            </g>
        </g>
    </g>
</svg>