<?xml version="1.0" encoding="UTF-8"?>
<svg width="50px" height="40px" viewBox="0 0 50 40" version="1.1" xmlns="http://www.w3.org/2000/svg" xmlns:xlink="http://www.w3.org/1999/xlink">
    <!-- Generator: sketchtool 49.3 (51167) - http://www.bohemiancoding.com/sketch -->
    <title>0F63176F-B4DB-4DE2-B336-A08E866873FF</title>
    <desc>Created with sketchtool.</desc>
    <defs></defs>
    <g id="Page-1" stroke="none" stroke-width="1" fill="none" fill-rule="evenodd">
        <g id="Homepage" transform="translate(-186.000000, -1270.000000)" fill-rule="nonzero">
            <g id="cloud" transform="translate(186.000000, 1270.000000)">
                <g id="Group">
                    <path d="M44.3666667,18.5166667 C43.7816667,18.3666667 42.7833333,18.15 41.6666667,17.9166667 C41.6333333,13.55 38.0833333,10 33.7,10 C32.9166667,10 32.1833333,10.1333333 31.4666667,10.35 C30.45,4.48333333 25.3166667,0 19.1666667,0 C12.2666667,0 6.66666667,5.6 6.66666667,12.5 C6.66666667,13.45 6.78333333,14.3833333 6.98333333,15.2666667 C2.98333333,16.25 0,19.8666667 0,24.1666667 C0,29.2166667 4.11666667,33.3333333 9.16666667,33.3333333 L42.4666667,33.3333333 C46.6166667,33.3333333 50,29.95 50,25.8 C50,22.3666667 47.6833333,19.3666667 44.3666667,18.5166667 Z M42.4666667,31.6666667 L9.16666667,31.6666667 C5.03333333,31.6666667 1.66666667,28.3 1.66666667,24.1666667 C1.66666667,20.0333333 5.03333333,16.6666667 9.16666667,16.6666667 C8.63333333,15.3833333 8.33333333,13.9833333 8.33333333,12.5 C8.33333333,6.51666667 13.1833333,1.66666667 19.1666667,1.66666667 C25.15,1.66666667 30,6.51666667 30,12.5 L29.9833333,12.9 C31.0166667,12.1333333 32.3,11.6666667 33.7,11.6666667 C37.1833333,11.6666667 40,14.4833333 40,17.9666667 C40,18.4166667 39.95,18.85 39.8666667,19.25 C41.5166667,19.5833333 43.15,19.9166667 43.95,20.1333333 C46.4666667,20.7833333 48.3333333,23.0833333 48.3333333,25.8 C48.3333333,29.0333333 45.7,31.6666667 42.4666667,31.6666667 Z" id="Shape" fill="#2D2220"></path>
                    <path d="M48.3333333,25.8 C48.3333333,29.0333333 45.7,31.6666667 42.4666667,31.6666667 L9.16666667,31.6666667 C8.71666667,31.6666667 8.28333333,31.6333333 7.86666667,31.55 C7.1,30.3833333 6.66666667,29 6.66666667,27.5 C6.66666667,23.3666667 10.0333333,20 14.1666667,20 C13.6333333,18.7166667 13.3333333,17.3166667 13.3333333,15.8333333 C13.3333333,9.85 18.1833333,5 24.1666667,5 C25.3,5 26.4,5.16666667 27.4333333,5.5 C29.0333333,7.38333333 30,9.83333333 30,12.5 L29.9833333,12.9 C31.0166667,12.1333333 32.3,11.6666667 33.7,11.6666667 C33.8683333,11.6666667 34.0166667,11.6666667 34.1833333,11.6833333 C36.4,11.85 38.2833333,13.1666667 39.2666667,15.0333333 C39.7333333,15.9 40,16.9166667 40,17.9666667 C40,18.4166667 39.95,18.85 39.8666667,19.25 C41.5166667,19.5833333 43.15,19.9166667 43.95,20.1333333 C44.3,20.2333333 44.6333333,20.35 44.95,20.5 C46.1516667,21.05 47.1166667,22 47.7,23.1833333 C48.1166667,23.9666667 48.3333333,24.85 48.3333333,25.8 Z" id="Shape" fill="#31CFFF"></path>
                </g>
                <path d="M43.3333333,35.8333333 C43.3333333,35.3733333 43.7066667,35 44.1666667,35 L49.1666667,35 C49.6266667,35 50,35.3733333 50,35.8333333 C50,36.2933333 49.6266667,36.6666667 49.1666667,36.6666667 L44.1666667,36.6666667 C43.7066667,36.6666667 43.3333333,36.2933333 43.3333333,35.8333333 Z" id="Shape" fill="#31CFFF"></path>
                <path d="M0,35.8333333 C0,35.3733333 0.373333333,35 0.833333333,35 L39.1666667,35 C39.6266667,35 40,35.3733333 40,35.8333333 C40,36.2933333 39.6266667,36.6666667 39.1666667,36.6666667 L0.833333333,36.6666667 C0.373333333,36.6666667 0,36.2933333 0,35.8333333 Z" id="Shape" fill="#31CFFF"></path>
                <path d="M18.3333333,39.1666667 C18.3333333,38.7066667 18.7066667,38.3333333 19.1666667,38.3333333 L49.1666667,38.3333333 C49.6266667,38.3333333 50,38.7066667 50,39.1666667 C50,39.6266667 49.6266667,40 49.1666667,40 L19.1666667,40 C18.7066667,40 18.3333333,39.6266667 18.3333333,39.1666667 Z" id="Shape" fill="#31CFFF"></path>
                <path d="M6.66666667,39.1666667 C6.66666667,38.7066667 7.04,38.3333333 7.5,38.3333333 L14.1666667,38.3333333 C14.6266667,38.3333333 15,38.7066667 15,39.1666667 C15,39.6266667 14.6266667,40 14.1666667,40 L7.5,40 C7.04,40 6.66666667,39.6266667 6.66666667,39.1666667 Z" id="Shape" fill="#31CFFF"></path>
                <path d="M10.8333333,13.3333333 C10.3733333,13.3333333 10,12.96 10,12.5 C10,3.43833333 17.425,3.33333333 17.5,3.33333333 C17.96,3.33333333 18.3333333,3.70666667 18.3333333,4.16666667 C18.3333333,4.62666667 17.9616667,5 17.5016667,5 C17.2433333,5.00166667 11.6666667,5.14833333 11.6666667,12.5 C11.6666667,12.96 11.2933333,13.3333333 10.8333333,13.3333333 Z" id="Shape" fill="#2D2220"></path>
                <circle id="Oval" fill="#2D2220" cx="20.8333333" cy="4.16666667" r="1"></circle>
                <path d="M43.3333333,29.1666667 C43.3333333,28.7066667 42.96,28.3333333 42.5,28.3333333 L30.8333333,28.3333333 C30.3733333,28.3333333 30,28.7066667 30,29.1666667 C30,29.6266667 30.3733333,30 30.8333333,30 L42.5,30 C42.96,30 43.3333333,29.6266667 43.3333333,29.1666667 Z" id="Shape" fill="#2D2220"></path>
                <path d="M25,29.1666667 C25,28.7066667 25.3733333,28.3333333 25.8333333,28.3333333 L27.5,28.3333333 C27.96,28.3333333 28.3333333,28.7066667 28.3333333,29.1666667 C28.3333333,29.6266667 27.96,30 27.5,30 L25.8333333,30 C25.3733333,30 25,29.6266667 25,29.1666667 Z" id="Shape" fill="#2D2220"></path>
            </g>
        </g>
    </g>
</svg>