<?xml version="1.0" encoding="UTF-8"?>
<svg width="50px" height="50px" viewBox="0 0 50 50" version="1.1" xmlns="http://www.w3.org/2000/svg" xmlns:xlink="http://www.w3.org/1999/xlink">
    <!-- Generator: sketchtool 49.3 (51167) - http://www.bohemiancoding.com/sketch -->
    <title>7A2AC88F-BE36-4F3A-8BB5-FED263A68855</title>
    <desc>Created with sketchtool.</desc>
    <defs></defs>
    <g id="Page-1" stroke="none" stroke-width="1" fill="none" fill-rule="evenodd">
        <g id="Homepage" transform="translate(-562.000000, -1268.000000)" fill-rule="nonzero">
            <g id="lightbulb_idea" transform="translate(562.000000, 1268.000000)">
                <path d="M48.2142857,38.3928571 C48.2142857,38.8928571 47.8214286,39.2857143 47.3214286,39.2857143 L46.4285714,39.2857143 L46.4285714,40.1785714 C46.4285714,40.6785714 46.0357143,41.0714286 45.5357143,41.0714286 C45.0357143,41.0714286 44.6428571,40.6785714 44.6428571,40.1785714 L44.6428571,39.2857143 L43.75,39.2857143 C43.25,39.2857143 42.8571429,38.8928571 42.8571429,38.3928571 C42.8571429,37.8928571 43.25,37.5 43.75,37.5 L44.6428571,37.5 L44.6428571,36.6071429 C44.6428571,36.1071429 45.0357143,35.7142857 45.5357143,35.7142857 C46.0357143,35.7142857 46.4285714,36.1071429 46.4285714,36.6071429 L46.4285714,37.5 L47.3214286,37.5 C47.8214286,37.5 48.2142857,37.8928571 48.2142857,38.3928571 Z" id="Shape" fill="#31CFFF"></path>
                <path d="M10.7142857,40.1785714 C10.7142857,40.6785714 10.3214286,41.0714286 9.82142857,41.0714286 L7.14285714,41.0714286 L7.14285714,43.75 C7.14285714,44.25 6.75,44.6428571 6.25,44.6428571 C5.75,44.6428571 5.35714286,44.25 5.35714286,43.75 L5.35714286,41.0714286 L2.67857143,41.0714286 C2.17857143,41.0714286 1.78571429,40.6785714 1.78571429,40.1785714 C1.78571429,39.6785714 2.17857143,39.2857143 2.67857143,39.2857143 L5.35714286,39.2857143 L5.35714286,36.6071429 C5.35714286,36.1071429 5.75,35.7142857 6.25,35.7142857 C6.75,35.7142857 7.14285714,36.1071429 7.14285714,36.6071429 L7.14285714,39.2857143 L9.82142857,39.2857143 C10.3214286,39.2857143 10.7142857,39.6785714 10.7142857,40.1785714 Z" id="Shape" fill="#5FFFBA"></path>
                <path d="M50,6.25 C50,6.75 49.6071429,7.14285714 49.1071429,7.14285714 L46.4285714,7.14285714 L46.4285714,9.82142857 C46.4285714,10.3214286 46.0357143,10.7142857 45.5357143,10.7142857 C45.0357143,10.7142857 44.6428571,10.3214286 44.6428571,9.82142857 L44.6428571,7.14285714 L41.9642857,7.14285714 C41.4642857,7.14285714 41.0714286,6.75 41.0714286,6.25 C41.0714286,5.75 41.4642857,5.35714286 41.9642857,5.35714286 L44.6428571,5.35714286 L44.6428571,2.67857143 C44.6428571,2.17857143 45.0357143,1.78571429 45.5357143,1.78571429 C46.0357143,1.78571429 46.4285714,2.17857143 46.4285714,2.67857143 L46.4285714,5.35714286 L49.1071429,5.35714286 C49.6071429,5.35714286 50,5.75 50,6.25 Z" id="Shape" fill="#5FFFBA"></path>
                <path d="M8.92857143,6.25 C8.92857143,6.75 8.53571429,7.14285714 8.03571429,7.14285714 L7.14285714,7.14285714 L7.14285714,8.03571429 C7.14285714,8.53571429 6.75,8.92857143 6.25,8.92857143 C5.75,8.92857143 5.35714286,8.53571429 5.35714286,8.03571429 L5.35714286,7.14285714 L4.46428571,7.14285714 C3.96428571,7.14285714 3.57142857,6.75 3.57142857,6.25 C3.57142857,5.75 3.96428571,5.35714286 4.46428571,5.35714286 L5.35714286,5.35714286 L5.35714286,4.46428571 C5.35714286,3.96428571 5.75,3.57142857 6.25,3.57142857 C6.75,3.57142857 7.14285714,3.96428571 7.14285714,4.46428571 L7.14285714,5.35714286 L8.03571429,5.35714286 C8.53571429,5.35714286 8.92857143,5.75 8.92857143,6.25 Z" id="Shape" fill="#31CFFF"></path>
                <path d="M37.4285714,15.5892857 C37.3928571,15.1607143 37.3214286,14.7321429 37.2321429,14.3214286 C37.2321429,14.3035714 37.2321429,14.3035714 37.2321429,14.2857143 C36.4821429,10.4821429 34.0892857,7.25 30.8392857,5.35714286 C30.5892857,5.19642857 30.3232143,5.07142857 30.0553571,4.94642857 C29.6446429,4.73214286 29.2339286,4.55357143 28.8053571,4.39285714 C28.2160714,4.17857143 27.6089286,3.98214286 26.9839286,3.85714286 C26.6267857,3.76785714 26.2696429,3.71428571 25.9107143,3.66071429 L25.8928571,3.66071429 C19.3392857,4.53571429 14.2857143,10.1428571 14.2857143,16.9285714 C14.2857143,19.375 14.9285714,21.6607143 16.0714286,23.625 C17.2321429,25.6428571 19.4821429,29 21.4285714,31.8392857 L21.4285714,21.2678571 C21.1428571,21.3571429 20.8571429,21.4285714 20.5357143,21.4285714 C19.0535714,21.4285714 17.8571429,20.2321429 17.8571429,18.75 C17.8571429,17.2678571 19.0535714,16.0714286 20.5357143,16.0714286 C22.0178571,16.0714286 23.2142857,17.2678571 23.2142857,18.75 L23.2142857,33.9285714 L25,33.9285714 L25,18.75 C25,17.2678571 26.1964286,16.0714286 27.6785714,16.0714286 C28.8928571,16.0714286 29.9107143,16.875 30.2321429,17.9821429 C31.3392857,18.3035714 32.1428571,19.3214286 32.1428571,20.5357143 C32.1428571,22.0178571 30.9464286,23.2142857 29.4642857,23.2142857 C29.1428571,23.2142857 28.8571429,23.1607143 28.5714286,23.0535714 L28.5714286,33.9285714 L28.9107143,33.9285714 C30.2678571,31.9821429 32.0357143,29.3928571 33.5357143,27.1071429 C33.7142857,26.8571429 33.8732143,26.6071429 34.0178571,26.3571429 C34.6964286,25.3214286 35.2857143,24.375 35.7142857,23.625 C36.8571429,21.6607143 37.5,19.375 37.5,16.9285714 C37.5,16.4642857 37.4821429,16.0357143 37.4285714,15.5892857 Z" id="Shape" fill="#FFD561"></path>
                <g id="Group" transform="translate(23.214286, 7.142857)">
                    <path d="M12.5535714,0 L10,0 C11.5910714,1.44642857 12.8035714,3.28571429 13.5196429,5.35714286 L15.4285714,5.35714286 C14.8392857,3.375 13.8571429,1.55357143 12.5535714,0 Z" id="Shape" fill="#2D2220"></path>
                    <path d="M5.35714286,28.5714286 C5.35714286,28.5714286 5.35714286,29.3035714 5.35714286,30.3571429 L0,30.3571429 C0,29.3035714 0,28.5714286 0,28.5714286 L5.35714286,28.5714286 Z" id="Shape" fill="#BCBCBC"></path>
                    <rect id="Rectangle-path" fill="#BCBCBC" x="0" y="32.1428571" width="5.35714286" height="1.78571429"></rect>
                    <path d="M0,35.7142857 L5.35714286,35.7142857 L5.35714286,37.4107143 C5.35714286,38.6785714 4,39.8928571 2.67857143,40.5535714 C1.35714286,39.8928571 0,38.6785714 0,37.4107143 L0,35.7142857 Z" id="Shape" fill="#BCBCBC"></path>
                </g>
                <path d="M46.4285714,36.6071429 C46.4285714,37.1071429 46.0357143,37.5 45.5357143,37.5 L44.6428571,37.5 L44.6428571,38.3928571 C44.6428571,38.8928571 44.25,39.2857143 43.75,39.2857143 C43.25,39.2857143 42.8571429,38.8928571 42.8571429,38.3928571 L42.8571429,37.5 L41.9642857,37.5 C41.4642857,37.5 41.0714286,37.1071429 41.0714286,36.6071429 C41.0714286,36.1071429 41.4642857,35.7142857 41.9642857,35.7142857 L42.8571429,35.7142857 L42.8571429,34.8214286 C42.8571429,34.3214286 43.25,33.9285714 43.75,33.9285714 C44.25,33.9285714 44.6428571,34.3214286 44.6428571,34.8214286 L44.6428571,35.7142857 L45.5357143,35.7142857 C46.0357143,35.7142857 46.4285714,36.1071429 46.4285714,36.6071429 Z" id="Shape" fill="#2D2220"></path>
                <path d="M8.92857143,38.3928571 C8.92857143,38.8928571 8.53571429,39.2857143 8.03571429,39.2857143 L5.35714286,39.2857143 L5.35714286,41.9642857 C5.35714286,42.4642857 4.96428571,42.8571429 4.46428571,42.8571429 C3.96428571,42.8571429 3.57142857,42.4642857 3.57142857,41.9642857 L3.57142857,39.2857143 L0.892857143,39.2857143 C0.392857143,39.2857143 0,38.8928571 0,38.3928571 C0,37.8928571 0.392857143,37.5 0.892857143,37.5 L3.57142857,37.5 L3.57142857,34.8214286 C3.57142857,34.3214286 3.96428571,33.9285714 4.46428571,33.9285714 C4.96428571,33.9285714 5.35714286,34.3214286 5.35714286,34.8214286 L5.35714286,37.5 L8.03571429,37.5 C8.53571429,37.5 8.92857143,37.8928571 8.92857143,38.3928571 Z" id="Shape" fill="#2D2220"></path>
                <path d="M48.2142857,4.46428571 C48.2142857,4.96428571 47.8214286,5.35714286 47.3214286,5.35714286 L44.6428571,5.35714286 L44.6428571,8.03571429 C44.6428571,8.53571429 44.25,8.92857143 43.75,8.92857143 C43.25,8.92857143 42.8571429,8.53571429 42.8571429,8.03571429 L42.8571429,5.35714286 L40.1785714,5.35714286 C39.6785714,5.35714286 39.2857143,4.96428571 39.2857143,4.46428571 C39.2857143,3.96428571 39.6785714,3.57142857 40.1785714,3.57142857 L42.8571429,3.57142857 L42.8571429,0.892857143 C42.8571429,0.392857143 43.25,0 43.75,0 C44.25,0 44.6428571,0.392857143 44.6428571,0.892857143 L44.6428571,3.57142857 L47.3214286,3.57142857 C47.8214286,3.57142857 48.2142857,3.96428571 48.2142857,4.46428571 Z" id="Shape" fill="#2D2220"></path>
                <path d="M7.14285714,4.46428571 C7.14285714,4.96428571 6.75,5.35714286 6.25,5.35714286 L5.35714286,5.35714286 L5.35714286,6.25 C5.35714286,6.75 4.96428571,7.14285714 4.46428571,7.14285714 C3.96428571,7.14285714 3.57142857,6.75 3.57142857,6.25 L3.57142857,5.35714286 L2.67857143,5.35714286 C2.17857143,5.35714286 1.78571429,4.96428571 1.78571429,4.46428571 C1.78571429,3.96428571 2.17857143,3.57142857 2.67857143,3.57142857 L3.57142857,3.57142857 L3.57142857,2.67857143 C3.57142857,2.17857143 3.96428571,1.78571429 4.46428571,1.78571429 C4.96428571,1.78571429 5.35714286,2.17857143 5.35714286,2.67857143 L5.35714286,3.57142857 L6.25,3.57142857 C6.75,3.57142857 7.14285714,3.96428571 7.14285714,4.46428571 Z" id="Shape" fill="#2D2220"></path>
                <path d="M37.2678571,24.4285714 C38.5535714,22.1964286 39.2857143,19.6071429 39.2857143,16.8571429 C39.2857143,15.9821429 39.2142857,15.125 39.0714286,14.2857143 L37.2321429,14.2857143 C37.4107143,15.1428571 37.5,16.0178571 37.5,16.9285714 C37.5,19.375 36.8571429,21.6607143 35.7142857,23.625 C34.25,26.1607143 31.0535714,30.8392857 28.9107143,33.9285714 L26.7857143,33.9285714 L26.7857143,21.2678571 C27.0714286,21.3571429 27.3571429,21.4285714 27.6785714,21.4285714 C29.1607143,21.4285714 30.3571429,20.2321429 30.3571429,18.75 C30.3571429,17.2678571 29.1607143,16.0714286 27.6785714,16.0714286 C26.1964286,16.0714286 25,17.2678571 25,18.75 L25,33.9285714 L23.2142857,33.9285714 L23.2142857,18.75 C23.2142857,17.2678571 22.0178571,16.0714286 20.5357143,16.0714286 C19.0535714,16.0714286 17.8571429,17.2678571 17.8571429,18.75 C17.8571429,20.2321429 19.0535714,21.4285714 20.5357143,21.4285714 C20.8571429,21.4285714 21.1428571,21.3571429 21.4285714,21.2678571 L21.4285714,33.9285714 L19.3035714,33.9285714 C17.1607143,30.8392857 13.9642857,26.1607143 12.5,23.625 C11.3571429,21.6607143 10.7142857,19.375 10.7142857,16.9285714 C10.7142857,9.53571429 16.7142857,3.53571429 24.1071429,3.53571429 C26.5535714,3.53571429 28.8392857,4.19642857 30.8035714,5.35714286 L34,5.35714286 C31.3392857,3.05357143 27.875,1.67857143 24.1071429,1.67857143 C15.7321429,1.67857143 8.92857143,8.48214286 8.92857143,16.8571429 C8.92857143,19.6071429 9.66071429,22.1964286 10.9464286,24.4285714 C12.4464286,27 15.4821429,31.6071429 17.8571429,35.125 L17.8571429,37.5 L16.9642857,37.5 C16.4642857,37.5 16.0714286,37.8928571 16.0714286,38.3928571 C16.0714286,38.8928571 16.4642857,39.2857143 16.9642857,39.2857143 L17.8571429,39.2857143 L17.8571429,41.0714286 L16.9642857,41.0714286 C16.4642857,41.0714286 16.0714286,41.4642857 16.0714286,41.9642857 C16.0714286,42.4642857 16.4642857,42.8571429 16.9642857,42.8571429 L17.8571429,42.8571429 L17.8571429,44.5535714 C17.8571429,47.3214286 21.9464286,50 24.1071429,50 C26.2678571,50 30.3571429,47.3214286 30.3571429,44.5535714 L30.3571429,42.8571429 L31.25,42.8571429 C31.75,42.8571429 32.1428571,42.4642857 32.1428571,41.9642857 C32.1428571,41.4642857 31.75,41.0714286 31.25,41.0714286 L30.3571429,41.0714286 L30.3571429,39.2857143 L31.25,39.2857143 C31.75,39.2857143 32.1428571,38.8928571 32.1428571,38.3928571 C32.1428571,37.8928571 31.75,37.5 31.25,37.5 L30.3571429,37.5 L30.3571429,35.125 C32.7321429,31.6071429 35.7678571,27 37.2678571,24.4285714 Z M27.6785714,17.8392857 C28.1607143,17.8392857 28.5535714,18.25 28.5535714,18.7321429 C28.5535714,19.2321429 28.1589286,19.625 27.6785714,19.625 C27.1982143,19.625 26.8035714,19.2321429 26.8035714,18.7321429 C26.8035714,18.25 27.1964286,17.8392857 27.6785714,17.8392857 Z M20.5357143,19.6428571 C20.0535714,19.6428571 19.6607143,19.2321429 19.6607143,18.75 C19.6607143,18.25 20.0535714,17.8571429 20.5357143,17.8571429 C21.0178571,17.8571429 21.4107143,18.25 21.4107143,18.75 C21.4107143,19.2321429 21.0178571,19.6428571 20.5357143,19.6428571 Z M28.5714286,44.5535714 C28.5714286,45.8214286 27.2142857,47.0357143 25.8928571,47.6964286 C25.25,48.0178571 24.6071429,48.2142857 24.1071429,48.2142857 C22.625,48.2142857 19.6428571,46.4285714 19.6428571,44.5535714 L19.6428571,42.8571429 L28.5714286,42.8571429 L28.5714286,44.5535714 Z M28.5714286,41.0714286 L19.6428571,41.0714286 L19.6428571,39.2857143 L28.5714286,39.2857143 L28.5714286,41.0714286 Z M28.5714286,37.5 L19.6428571,37.5 C19.6428571,36.4464286 19.6428571,35.7142857 19.6428571,35.7142857 L28.5714286,35.7142857 C28.5714286,35.7142857 28.5714286,36.4464286 28.5714286,37.5 Z" id="Shape" fill="#2D2220"></path>
            </g>
        </g>
    </g>
</svg>