<?xml version="1.0" encoding="UTF-8"?>
<svg width="50px" height="42px" viewBox="0 0 50 42" version="1.1" xmlns="http://www.w3.org/2000/svg" xmlns:xlink="http://www.w3.org/1999/xlink">
    <!-- Generator: sketchtool 49.3 (51167) - http://www.bohemiancoding.com/sketch -->
    <title>F1C3352C-C9F2-47E3-A3BC-04AE311B9411</title>
    <desc>Created with sketchtool.</desc>
    <defs></defs>
    <g id="Page-1" stroke="none" stroke-width="1" fill="none" fill-rule="evenodd">
        <g id="Homepage" transform="translate(-945.000000, -1268.000000)" fill-rule="nonzero">
            <g id="monitor" transform="translate(945.000000, 1268.000000)">
                <rect id="Rectangle-path" fill="#FFD561" x="17.8565216" y="3.57130432" width="1.78565216" height="24.9991302"></rect>
                <rect id="Rectangle-path" fill="#FFD561" x="14.2852173" y="3.57130432" width="1.78565216" height="24.9991302"></rect>
                <path d="M21.4278259,3.57130432 L21.4278259,28.5704346 L46.4269562,28.5704346 L46.4269562,7.14260864 C46.4269562,7.14260864 44.641304,3.57130432 42.8556519,3.57130432 L21.4278259,3.57130432 Z" id="Shape" fill="#FFD561"></path>
                <path d="M47.3197823,0 L2.67847824,0 C1.19638695,0 0,1.19638695 0,2.67847824 L0,31.2489128 C0,32.7310041 1.19638695,33.9273911 2.67847824,33.9273911 L23.2134781,33.9273911 L23.2134781,37.4986954 L14.2852173,37.4986954 L14.2852173,39.2843475 L35.7130432,39.2843475 L35.7130432,37.4986954 L26.7847824,37.4986954 L26.7847824,33.9273911 L47.3197823,33.9273911 C48.8018736,33.9273911 49.9982605,32.7310041 49.9982605,31.2489128 L49.9982605,2.67847824 C49.9982605,1.19638695 48.8018736,0 47.3197823,0 Z M48.2126083,26.7847824 L7.14260864,26.7847824 L7.14260864,28.5704346 L48.2126083,28.5704346 L48.2126083,31.2489128 C48.2126083,31.7488954 47.8197649,32.1417389 47.3197823,32.1417389 L2.67847824,32.1417389 C2.17849564,32.1417389 1.78565216,31.7488954 1.78565216,31.2489128 L1.78565216,2.67847824 C1.78565216,2.17849564 2.17849564,1.78565216 2.67847824,1.78565216 L47.3197823,1.78565216 C47.8197649,1.78565216 48.2126083,2.17849564 48.2126083,2.67847824 L48.2126083,26.7847824 Z" id="Shape" fill="#2D2220"></path>
                <path d="M46.4269562,6.24978256 L46.4269562,24.1063042 L44.641304,24.1063042 L44.641304,6.24978256 C44.641304,5.5355217 44.1413214,5.374813 43.7306214,5.35695648 L6.24978256,5.35695648 C5.5355217,5.35695648 5.374813,5.83908257 5.35695648,6.26763908 L5.35695648,28.5704346 L3.57130432,28.5704346 L3.57130432,6.24978256 C3.57130432,5.17839127 4.28556519,3.57130432 6.24978256,3.57130432 L43.7484779,3.57130432 C44.8198692,3.57130432 46.4269562,4.28556519 46.4269562,6.24978256 Z" id="Shape" fill="#2D2220"></path>
                <rect id="Rectangle-path" fill="#FFD561" x="16.0708694" y="39.2843475" width="14.2852173" height="1.78565216"></rect>
                <rect id="Rectangle-path" fill="#FFD561" x="32.1417389" y="39.2843475" width="5.35695648" height="1.78565216"></rect>
            </g>
        </g>
    </g>
</svg>